<?xml version="1.0" standalone="no"?>
<!DOCTYPE svg PUBLIC "-//W3C//DTD SVG 20010904//EN"
 "http://www.w3.org/TR/2001/REC-SVG-20010904/DTD/svg10.dtd">
<svg version="1.0" xmlns="http://www.w3.org/2000/svg"
 width="512.000000pt" height="512.000000pt" viewBox="0 0 512.000000 512.000000"
 preserveAspectRatio="xMidYMid meet">

<g transform="translate(0.000000,512.000000) scale(0.100000,-0.100000)"
fill="#000000" stroke="none">
<path d="M1870 4944 c-130 -28 -179 -61 -373 -253 -221 -218 -222 -222 -151
-341 50 -83 68 -158 61 -257 -14 -236 -211 -407 -450 -390 -72 5 -92 11 -183
57 -86 44 -108 51 -136 45 -42 -9 -341 -301 -399 -389 -110 -167 -110 -399 1
-562 24 -36 533 -552 1317 -1335 1382 -1379 1303 -1306 1449 -1344 115 -30
257 -14 368 42 40 19 207 181 759 731 389 389 721 727 737 751 60 89 75 144
75 276 0 138 -13 189 -74 282 -25 37 -501 519 -1322 1339 -1252 1248 -1286
1281 -1354 1312 -68 30 -169 53 -230 51 -16 0 -59 -7 -95 -15z m223 -254 c30
-14 339 -318 1099 -1077 l1056 -1058 -850 -844 -849 -845 -1050 1050 c-1152
1152 -1103 1097 -1103 1218 1 99 27 145 164 281 l118 118 54 -21 c109 -42 133
-47 253 -47 106 0 131 3 209 29 364 120 551 518 409 875 l-25 63 113 115 c147
147 201 177 307 167 29 -2 72 -13 95 -24z m2454 -2432 c140 -141 162 -179 163
-278 0 -121 22 -95 -741 -856 -774 -772 -726 -731 -858 -722 -93 7 -130 30
-274 175 l-118 119 845 842 c465 463 849 842 853 842 5 0 63 -55 130 -122z"/>
</g>
</svg>
