<?xml version="1.0" standalone="no"?>
<!DOCTYPE svg PUBLIC "-//W3C//DTD SVG 20010904//EN"
 "http://www.w3.org/TR/2001/REC-SVG-20010904/DTD/svg10.dtd">
<svg version="1.0" xmlns="http://www.w3.org/2000/svg"
 width="512.000000pt" height="512.000000pt" viewBox="0 0 512.000000 512.000000"
 preserveAspectRatio="xMidYMid meet">

<g transform="translate(0.000000,512.000000) scale(0.100000,-0.100000)"
fill="#000000" stroke="none">
<path d="M2410 4165 c-275 -67 -489 -333 -490 -608 0 -98 68 -171 160 -171 95
0 153 65 163 180 9 115 73 209 179 266 36 19 58 23 138 23 80 0 102 -4 138
-23 66 -35 119 -88 149 -150 38 -77 39 -190 4 -269 -28 -63 -98 -131 -172
-168 -85 -43 -146 -92 -189 -152 -64 -90 -82 -149 -89 -297 l-6 -128 -893
-344 c-491 -189 -915 -355 -942 -370 -102 -56 -193 -177 -225 -301 -20 -76
-20 -251 0 -328 45 -172 179 -305 352 -350 86 -23 3660 -23 3746 0 173 45 307
178 352 350 20 77 20 252 0 328 -33 126 -123 245 -227 302 -29 16 -453 183
-943 371 l-890 342 -3 74 c-2 40 0 87 3 105 9 47 49 89 119 124 208 103 338
302 353 539 18 300 -194 585 -489 655 -77 18 -224 18 -298 0z m1089 -2138
c1076 -414 976 -359 976 -537 0 -118 -8 -139 -69 -184 l-27 -21 -1819 0 -1819
0 -27 21 c-58 43 -69 68 -72 168 -4 105 8 149 54 186 34 27 1852 730 1874 724
8 -2 426 -163 929 -357z"/>
</g>
</svg>
