<?xml version="1.0" encoding="UTF-8"?>
<svg xmlns="http://www.w3.org/2000/svg" xmlns:xlink="http://www.w3.org/1999/xlink" width="70px" height="70px" viewBox="0 0 70 70" version="1.1">
<defs>
<filter id="alpha" filterUnits="objectBoundingBox" x="0%" y="0%" width="100%" height="100%">
  <feColorMatrix type="matrix" in="SourceGraphic" values="0 0 0 0 1 0 0 0 0 1 0 0 0 0 1 0 0 0 1 0"/>
</filter>
<mask id="mask0">
  <g filter="url(#alpha)">
<rect x="0" y="0" width="70" height="70" style="fill:rgb(0%,0%,0%);fill-opacity:0.988235;stroke:none;"/>
  </g>
</mask>
<clipPath id="clip1">
  <rect x="0" y="0" width="70" height="70"/>
</clipPath>
<g id="surface5" clip-path="url(#clip1)">
<path style=" stroke:none;fill-rule:evenodd;fill:rgb(94.117647%,39.215687%,13.333334%);fill-opacity:1;" d="M 55.164062 19.617188 C 56.808594 19.597656 58.449219 19.617188 60.085938 19.6875 C 62.675781 20.554688 63.75 22.355469 63.300781 25.085938 C 62.867188 26.796875 61.796875 27.867188 60.085938 28.300781 C 58.449219 28.367188 56.808594 28.390625 55.164062 28.367188 C 57.011719 28.070312 58.21875 27.023438 58.789062 25.226562 C 59.296875 22.230469 58.089844 20.363281 55.164062 19.617188 Z M 55.164062 19.617188 "/>
</g>
<mask id="mask1">
  <g filter="url(#alpha)">
<rect x="0" y="0" width="70" height="70" style="fill:rgb(0%,0%,0%);fill-opacity:0.862745;stroke:none;"/>
  </g>
</mask>
<clipPath id="clip2">
  <rect x="0" y="0" width="70" height="70"/>
</clipPath>
<g id="surface8" clip-path="url(#clip2)">
<path style=" stroke:none;fill-rule:evenodd;fill:rgb(97.647059%,54.11765%,10.980392%);fill-opacity:1;" d="M 8.132812 20.578125 C 7.953125 20.851562 7.726562 21.078125 7.453125 21.257812 C 7.542969 20.894531 7.769531 20.667969 8.132812 20.578125 Z M 8.132812 20.578125 "/>
</g>
<mask id="mask2">
  <g filter="url(#alpha)">
<rect x="0" y="0" width="70" height="70" style="fill:rgb(0%,0%,0%);fill-opacity:0.988235;stroke:none;"/>
  </g>
</mask>
<clipPath id="clip3">
  <rect x="0" y="0" width="70" height="70"/>
</clipPath>
<g id="surface11" clip-path="url(#clip3)">
<path style=" stroke:none;fill-rule:evenodd;fill:rgb(94.117647%,39.215687%,13.333334%);fill-opacity:1;" d="M 55.164062 41.492188 C 56.808594 41.472656 58.449219 41.492188 60.085938 41.5625 C 62.675781 42.429688 63.75 44.230469 63.300781 46.960938 C 62.867188 48.671875 61.796875 49.742188 60.085938 50.175781 C 58.449219 50.242188 56.808594 50.265625 55.164062 50.242188 C 57.011719 49.945312 58.21875 48.898438 58.789062 47.101562 C 59.296875 44.105469 58.089844 42.238281 55.164062 41.492188 Z M 55.164062 41.492188 "/>
</g>
<mask id="mask3">
  <g filter="url(#alpha)">
<rect x="0" y="0" width="70" height="70" style="fill:rgb(0%,0%,0%);fill-opacity:0.862745;stroke:none;"/>
  </g>
</mask>
<clipPath id="clip4">
  <rect x="0" y="0" width="70" height="70"/>
</clipPath>
<g id="surface14" clip-path="url(#clip4)">
<path style=" stroke:none;fill-rule:evenodd;fill:rgb(97.647059%,54.11765%,10.980392%);fill-opacity:1;" d="M 8.132812 42.453125 C 7.953125 42.726562 7.726562 42.953125 7.453125 43.132812 C 7.542969 42.769531 7.769531 42.542969 8.132812 42.453125 Z M 8.132812 42.453125 "/>
</g>
</defs>
<g id="surface1">
<path style=" stroke:none;fill-rule:evenodd;fill:rgb(97.647059%,62.352943%,9.803922%);fill-opacity:1;" d="M 55.164062 19.617188 C 58.089844 20.363281 59.296875 22.230469 58.789062 25.226562 C 58.21875 27.023438 57.011719 28.070312 55.164062 28.367188 C 40.035156 28.390625 24.90625 28.367188 9.773438 28.300781 C 7.1875 27.433594 6.113281 25.632812 6.5625 22.898438 C 6.683594 22.246094 6.980469 21.699219 7.453125 21.257812 C 7.726562 21.078125 7.953125 20.851562 8.132812 20.578125 C 8.574219 20.105469 9.121094 19.808594 9.773438 19.6875 C 24.90625 19.617188 40.035156 19.597656 55.164062 19.617188 Z M 55.164062 19.617188 "/>
<use xlink:href="#surface5" mask="url(#mask0)"/>
<use xlink:href="#surface8" mask="url(#mask1)"/>
<path style=" stroke:none;fill-rule:evenodd;fill:rgb(97.647059%,62.352943%,9.803922%);fill-opacity:1;" d="M 55.164062 41.492188 C 58.089844 42.238281 59.296875 44.105469 58.789062 47.101562 C 58.21875 48.898438 57.011719 49.945312 55.164062 50.242188 C 40.035156 50.265625 24.90625 50.242188 9.773438 50.175781 C 7.1875 49.308594 6.113281 47.507812 6.5625 44.773438 C 6.683594 44.121094 6.980469 43.574219 7.453125 43.132812 C 7.726562 42.953125 7.953125 42.726562 8.132812 42.453125 C 8.574219 41.980469 9.121094 41.683594 9.773438 41.5625 C 24.90625 41.492188 40.035156 41.472656 55.164062 41.492188 Z M 55.164062 41.492188 "/>
<use xlink:href="#surface11" mask="url(#mask2)"/>
<use xlink:href="#surface14" mask="url(#mask3)"/>
</g>
</svg>
