<?xml version="1.0" standalone="no"?>
<!DOCTYPE svg PUBLIC "-//W3C//DTD SVG 20010904//EN"
 "http://www.w3.org/TR/2001/REC-SVG-20010904/DTD/svg10.dtd">
<svg version="1.0" xmlns="http://www.w3.org/2000/svg"
 width="512.000000pt" height="512.000000pt" viewBox="0 0 512.000000 512.000000"
 preserveAspectRatio="xMidYMid meet">

<g transform="translate(0.000000,512.000000) scale(0.100000,-0.100000)"
fill="#000000" stroke="none">
<path d="M2360 4535 c-390 -87 -683 -382 -766 -770 -18 -83 -20 -268 -4 -355
17 -93 48 -186 91 -271 39 -79 135 -213 188 -263 l30 -29 -67 -32 c-80 -38
-189 -104 -251 -152 l-45 -34 -29 58 c-43 83 -145 181 -237 226 -134 66 -261
81 -394 47 -218 -56 -378 -224 -423 -445 -29 -143 5 -302 91 -428 l42 -61 -87
-58 c-106 -71 -216 -187 -283 -297 -125 -207 -173 -503 -102 -625 51 -87 124
-143 255 -196 208 -85 546 -119 881 -89 l125 11 135 -45 c269 -90 568 -136
950 -144 450 -10 829 37 1150 144 l135 44 148 -12 c544 -45 1003 82 1113 307
26 53 26 59 21 177 -15 333 -177 588 -492 772 -17 10 -15 15 16 56 68 89 109
218 109 344 0 259 -158 464 -415 541 -93 28 -250 25 -341 -8 -133 -47 -250
-146 -309 -263 l-27 -54 -51 37 c-77 56 -143 96 -227 138 -41 20 -77 38 -79
40 -2 2 26 35 61 73 302 320 342 825 93 1195 -131 197 -339 348 -560 407 -105
28 -348 36 -445 14z m365 -170 c325 -67 588 -341 646 -671 19 -111 7 -272 -30
-384 -190 -586 -933 -763 -1365 -325 -272 276 -314 708 -101 1030 51 77 153
179 230 230 79 52 193 100 280 119 93 19 248 20 340 1z m-1580 -1572 c117 -41
225 -149 259 -260 6 -19 -6 -38 -69 -106 -101 -110 -185 -229 -243 -345 l-47
-94 -61 5 c-267 24 -442 279 -364 530 68 219 311 345 525 270z m3090 0 c102
-35 197 -122 243 -221 34 -74 42 -202 18 -284 -46 -160 -192 -279 -360 -295
l-61 -5 -38 78 c-54 111 -151 253 -248 363 l-82 94 32 63 c95 182 309 272 496
207z m-2114 -108 c280 -131 583 -133 859 -4 l85 40 45 -17 c154 -58 340 -177
472 -302 273 -260 433 -589 468 -964 14 -147 5 -212 -40 -279 -40 -61 -48 -69
-110 -120 -155 -125 -446 -220 -845 -275 -160 -22 -664 -31 -846 -15 -593 52
-1005 206 -1124 422 -30 53 -30 56 -29 199 1 231 49 414 165 640 158 305 426
551 749 686 30 13 60 23 66 24 7 0 45 -16 85 -35z m-1213 -838 c37 -6 68 -12
70 -13 1 -1 -9 -45 -23 -99 -14 -53 -32 -149 -40 -212 -36 -277 -5 -403 137
-545 l66 -67 -44 -7 c-49 -7 -212 1 -339 17 -212 27 -423 106 -470 178 -35 53
-39 92 -21 198 45 259 194 463 422 578 l66 33 54 -25 c30 -14 85 -30 122 -36z
m3564 22 c117 -58 247 -186 316 -309 67 -121 116 -334 93 -410 -29 -98 -217
-187 -473 -224 -131 -19 -344 -30 -381 -19 l-29 9 50 42 c108 91 172 229 172
373 0 106 -25 284 -55 397 -14 51 -25 97 -25 101 0 5 28 14 62 21 34 6 89 22
123 35 64 24 69 23 147 -16z"/>
</g>
</svg>
