<?xml version="1.0" standalone="no"?>
<!DOCTYPE svg PUBLIC "-//W3C//DTD SVG 20010904//EN"
 "http://www.w3.org/TR/2001/REC-SVG-20010904/DTD/svg10.dtd">
<svg version="1.0" xmlns="http://www.w3.org/2000/svg"
 width="512.000000pt" height="512.000000pt" viewBox="0 0 512.000000 512.000000"
 preserveAspectRatio="xMidYMid meet">

<g transform="translate(0.000000,512.000000) scale(0.100000,-0.100000)"
fill="#000000" stroke="none">
<path d="M3647 5104 c-217 -33 -428 -132 -601 -282 l-68 -59 -82 34 c-259 110
-606 165 -900 143 -494 -37 -934 -232 -1280 -569 -321 -313 -519 -686 -597
-1126 -30 -169 -33 -502 -6 -660 161 -930 875 -1608 1807 -1715 131 -16 422
-8 545 14 298 54 571 163 806 321 l113 76 90 -90 c84 -84 89 -91 74 -108 -28
-31 -39 -91 -26 -142 10 -42 42 -78 402 -439 215 -216 414 -408 441 -426 84
-55 138 -71 245 -71 88 0 100 2 171 36 233 112 319 388 187 606 -20 33 -182
202 -432 452 -352 350 -406 401 -443 411 -49 12 -115 0 -146 -28 -17 -15 -24
-10 -108 75 l-91 90 65 94 c174 252 303 585 337 874 21 177 11 161 121 204
275 108 495 311 632 581 108 215 149 507 103 743 -123 638 -721 1061 -1359
961z m349 -169 c269 -47 492 -181 654 -397 335 -444 244 -1090 -199 -1423
-420 -317 -995 -271 -1356 106 -129 136 -212 285 -258 469 -32 129 -30 359 5
490 138 515 640 843 1154 755z m-1685 -165 c57 -6 155 -22 218 -36 113 -25
308 -88 325 -104 6 -6 -40 -94 -78 -147 -1 -1 -40 12 -86 28 -428 153 -915
122 -1325 -83 -180 -91 -317 -191 -461 -340 -140 -144 -216 -251 -303 -425
-422 -844 -74 -1873 774 -2288 224 -109 431 -162 680 -172 298 -12 545 39 810
167 503 243 852 708 941 1253 l17 105 45 6 c25 3 62 6 83 6 46 0 47 -2 24
-136 -69 -400 -246 -747 -524 -1024 -450 -449 -1084 -638 -1712 -510 -392 80
-761 297 -1026 605 -542 628 -612 1519 -175 2223 143 229 361 448 587 589 360
225 777 324 1186 283z m-43 -340 c124 -13 228 -35 340 -72 101 -34 102 -34 77
-109 -25 -76 -45 -217 -45 -323 0 -235 67 -461 196 -656 58 -90 194 -233 284
-301 122 -92 318 -180 469 -210 71 -14 69 -6 42 -147 -27 -137 -71 -267 -137
-397 -376 -752 -1297 -1059 -2049 -684 -290 145 -545 399 -690 689 -246 492
-208 1082 101 1541 311 462 867 726 1412 669z m1457 -3000 l80 -80 -63 -62
-62 -63 -82 82 -83 83 60 60 c33 33 62 60 65 60 3 0 41 -36 85 -80z m382 -142
c29 -29 53 -57 53 -63 0 -13 -342 -355 -355 -355 -6 0 -35 25 -65 55 l-55 55
180 180 c99 99 182 180 185 180 2 0 28 -23 57 -52z m245 -245 l58 -58 -177
-177 c-98 -98 -182 -178 -188 -178 -6 0 -35 25 -65 55 l-55 55 180 180 c99 99
182 180 185 180 2 0 30 -26 62 -57z m321 -321 c154 -155 179 -196 178 -291 0
-32 -7 -77 -17 -100 -22 -55 -100 -125 -158 -141 -57 -16 -139 -9 -191 15 -22
11 -103 81 -180 157 l-140 137 180 181 c99 99 182 180 185 180 3 0 67 -62 143
-138z"/>
<path d="M3988 3943 l-408 -408 -143 142 c-78 77 -152 146 -164 152 -36 18
-63 13 -94 -18 -55 -56 -50 -64 169 -283 180 -181 201 -198 232 -198 32 0 65
31 482 448 433 432 448 448 448 485 0 49 -35 87 -82 87 -29 0 -70 -37 -440
-407z"/>
<path d="M1983 4260 c-213 -23 -434 -102 -608 -220 -84 -57 -96 -70 -97 -107
-1 -40 18 -72 50 -84 36 -14 58 -7 138 47 177 119 366 181 603 200 80 6 98 10
118 30 35 35 31 85 -8 118 -33 28 -57 30 -196 16z"/>
</g>
</svg>
