<?xml version="1.0" standalone="no"?>
<!DOCTYPE svg PUBLIC "-//W3C//DTD SVG 20010904//EN"
 "http://www.w3.org/TR/2001/REC-SVG-20010904/DTD/svg10.dtd">
<svg version="1.0" xmlns="http://www.w3.org/2000/svg"
 width="512.000000pt" height="512.000000pt" viewBox="0 0 512.000000 512.000000"
 preserveAspectRatio="xMidYMid meet">

<g transform="translate(0.000000,512.000000) scale(0.100000,-0.100000)"
fill="#000000" stroke="none">
<path d="M1692 4943 c-18 -9 -44 -30 -57 -47 -12 -17 -156 -297 -319 -623
l-296 -592 -458 -3 -459 -3 -37 -29 c-67 -50 -67 -54 -64 -461 3 -349 4 -365
24 -391 46 -62 65 -69 202 -72 l127 -3 304 -1217 c170 -683 313 -1235 325
-1257 14 -27 35 -47 66 -62 l44 -23 1466 0 1466 0 44 23 c31 15 52 35 66 62
12 22 155 574 325 1257 l304 1217 127 3 c137 3 156 10 202 72 20 26 21 42 24
391 3 407 3 411 -64 461 l-37 29 -459 3 -458 3 -305 609 c-344 686 -330 665
-435 665 -47 0 -63 -5 -94 -29 -43 -32 -66 -78 -66 -130 0 -26 71 -178 270
-576 l270 -540 -1180 0 -1180 0 271 542 c260 521 271 545 267 590 -11 112
-128 180 -226 131z m3108 -1743 l0 -160 -2240 0 -2240 0 0 160 0 160 2240 0
2240 0 0 -160z m-370 -487 c0 -5 -124 -509 -277 -1120 l-278 -1113 -1315 0
-1315 0 -278 1113 c-153 611 -277 1115 -277 1120 0 4 841 7 1870 7 1029 0
1870 -3 1870 -7z"/>
<path d="M1695 2065 c-47 -25 -74 -56 -86 -94 -6 -24 -9 -216 -7 -553 3 -504
4 -517 24 -544 39 -53 71 -69 134 -69 63 0 95 16 134 69 21 27 21 40 24 551 3
582 4 570 -62 620 -46 35 -117 44 -161 20z"/>
<path d="M2495 2065 c-47 -25 -74 -56 -86 -94 -6 -24 -9 -216 -7 -553 3 -504
4 -517 24 -544 39 -53 71 -69 134 -69 63 0 95 16 134 69 21 27 21 40 24 551 3
582 4 570 -62 620 -46 35 -117 44 -161 20z"/>
<path d="M3295 2065 c-47 -25 -74 -56 -86 -94 -6 -24 -9 -216 -7 -553 3 -504
4 -517 24 -544 39 -53 71 -69 134 -69 63 0 95 16 134 69 21 27 21 40 24 551 3
582 4 570 -62 620 -46 35 -117 44 -161 20z"/>
</g>
</svg>
