<?xml version="1.0" standalone="no"?>
<!DOCTYPE svg PUBLIC "-//W3C//DTD SVG 20010904//EN"
 "http://www.w3.org/TR/2001/REC-SVG-20010904/DTD/svg10.dtd">
<svg version="1.0" xmlns="http://www.w3.org/2000/svg"
 width="512.000000pt" height="512.000000pt" viewBox="0 0 512.000000 512.000000"
 preserveAspectRatio="xMidYMid meet">

<g transform="translate(0.000000,512.000000) scale(0.100000,-0.100000)"
fill="#000000" stroke="none">
<path d="M2752 4973 c-11 -10 -111 -171 -223 -358 -380 -639 -605 -989 -735
-1145 -106 -127 -344 -377 -605 -636 -232 -229 -236 -232 -530 -442 -321 -229
-381 -283 -442 -400 -202 -383 18 -843 443 -928 147 -29 289 -8 425 65 l71 38
319 -446 c176 -245 338 -465 360 -489 21 -24 62 -56 90 -70 43 -23 62 -27 140
-27 75 0 98 4 139 24 142 70 212 231 167 385 -11 36 -101 170 -349 514 -184
256 -336 471 -339 478 -7 18 35 43 257 154 412 206 780 372 950 429 166 56
671 176 1345 321 249 53 282 63 303 85 12 15 22 38 22 53 -1 19 -90 151 -310
455 l-309 429 47 48 c195 198 136 524 -115 643 -62 29 -76 32 -168 32 -92 0
-105 -3 -169 -33 -38 -18 -70 -31 -71 -30 -1 2 -134 188 -295 413 -161 226
-302 420 -313 433 -25 27 -76 29 -105 5z m823 -1274 c418 -584 761 -1064 763
-1069 1 -4 -17 -10 -40 -14 -66 -11 -781 -169 -988 -219 -513 -125 -649 -177
-1324 -506 -148 -72 -270 -130 -271 -129 -27 35 -565 791 -565 795 0 3 109
117 243 252 316 321 489 510 593 647 129 171 369 549 679 1072 76 127 141 232
144 231 3 0 348 -477 766 -1060z m250 297 c48 -28 87 -73 105 -121 16 -41 14
-136 -3 -177 -15 -36 -64 -98 -77 -98 -5 0 -70 86 -146 191 -90 126 -133 194
-126 201 44 44 174 46 247 4z m-2570 -1868 c127 -177 251 -352 277 -389 l48
-67 -273 -195 c-149 -107 -291 -204 -314 -216 -287 -144 -636 38 -686 359 -22
142 31 305 130 402 42 41 569 428 583 427 3 0 109 -144 235 -321z m627 -1148
c167 -234 312 -436 321 -450 63 -98 -14 -240 -130 -240 -91 0 -88 -3 -444 494
-182 253 -333 466 -336 472 -2 6 53 52 123 103 l126 91 18 -23 c9 -12 154
-213 322 -447z"/>
<path d="M4027 4937 c-20 -19 -29 -58 -65 -277 -23 -140 -42 -263 -42 -273 0
-29 45 -67 80 -67 64 0 72 19 118 300 23 140 42 263 42 273 0 10 -11 29 -25
42 -31 32 -78 33 -108 2z"/>
<path d="M4519 4470 c-184 -138 -340 -258 -346 -267 -35 -45 7 -123 65 -123
22 0 107 59 363 250 184 138 340 258 347 267 34 45 -8 123 -66 123 -22 0 -107
-59 -363 -250z"/>
<path d="M4269 3891 c-16 -16 -29 -36 -29 -45 0 -30 24 -65 54 -80 130 -62
575 -246 594 -246 57 0 92 84 55 128 -19 22 -594 272 -626 272 -10 0 -32 -13
-48 -29z"/>
</g>
</svg>
