<?xml version="1.0" standalone="no"?>
<!DOCTYPE svg PUBLIC "-//W3C//DTD SVG 20010904//EN"
 "http://www.w3.org/TR/2001/REC-SVG-20010904/DTD/svg10.dtd">
<svg version="1.0" xmlns="http://www.w3.org/2000/svg"
 width="512.000000pt" height="512.000000pt" viewBox="0 0 512.000000 512.000000"
 preserveAspectRatio="xMidYMid meet">

<g transform="translate(0.000000,512.000000) scale(0.100000,-0.100000)"
fill="#000000" stroke="none">
<path d="M1575 4994 c-11 -2 -45 -9 -75 -15 -169 -33 -350 -176 -429 -340 -22
-47 -41 -93 -41 -102 0 -16 -35 -17 -437 -17 -265 0 -452 -4 -475 -10 -74 -21
-130 -114 -114 -192 7 -36 47 -92 79 -110 16 -10 137 -14 481 -18 l458 -5 23
-62 c67 -176 209 -313 397 -381 65 -24 87 -27 203 -27 145 0 186 10 310 74
130 66 259 221 305 364 l12 37 1360 0 c1511 0 1400 -5 1455 66 55 72 34 181
-44 234 l-37 25 -1366 3 -1366 2 -32 78 c-76 185 -237 326 -427 377 -61 16
-204 28 -240 19z m196 -351 c114 -50 189 -164 189 -285 0 -89 -29 -165 -84
-222 -63 -64 -116 -88 -207 -94 -102 -6 -162 14 -233 79 -181 165 -116 459
118 535 55 19 160 12 217 -13z"/>
<path d="M3170 3199 c-90 -8 -143 -24 -230 -70 -138 -71 -245 -190 -301 -332
l-28 -72 -1255 -5 c-1248 -5 -1255 -5 -1282 -26 -53 -39 -69 -71 -69 -134 0
-63 16 -95 69 -134 27 -21 34 -21 1282 -26 l1255 -5 28 -72 c35 -88 103 -186
173 -247 66 -57 182 -119 267 -141 81 -21 236 -21 316 0 199 51 380 214 447
402 l23 63 571 0 571 0 33 23 c57 38 75 71 75 137 0 66 -18 99 -75 138 l-33
22 -571 0 -571 0 -23 63 c-31 87 -90 173 -171 250 -134 126 -310 185 -501 166z
m182 -345 c67 -22 135 -86 169 -159 24 -50 29 -73 29 -136 0 -65 -5 -85 -31
-137 -119 -240 -453 -235 -568 8 -54 115 -27 262 65 353 91 91 207 115 336 71z"/>
<path d="M1498 1395 c-206 -50 -379 -203 -453 -399 l-23 -61 -458 -5 c-344 -4
-465 -8 -481 -18 -38 -22 -75 -79 -80 -126 -7 -58 24 -122 74 -156 l37 -25
458 -3 c416 -3 458 -4 458 -19 0 -9 19 -55 41 -102 59 -120 171 -232 290 -289
96 -46 149 -60 251 -68 143 -11 324 48 445 145 72 58 147 161 185 253 l32 78
1366 2 1366 3 37 25 c80 54 99 162 42 236 -52 68 45 64 -1454 64 l-1359 0 -12
38 c-49 152 -177 300 -320 370 -47 23 -112 49 -145 57 -73 18 -220 18 -297 0z
m291 -344 c193 -100 231 -371 71 -515 -67 -60 -121 -81 -215 -81 -65 0 -89 5
-130 24 -150 74 -221 244 -165 396 28 74 114 164 181 188 65 24 200 18 258
-12z"/>
</g>
</svg>
