<?xml version="1.0" standalone="no"?>
<!DOCTYPE svg PUBLIC "-//W3C//DTD SVG 20010904//EN"
 "http://www.w3.org/TR/2001/REC-SVG-20010904/DTD/svg10.dtd">
<svg version="1.0" xmlns="http://www.w3.org/2000/svg"
 width="512.000000pt" height="512.000000pt" viewBox="0 0 512.000000 512.000000"
 preserveAspectRatio="xMidYMid meet">

<g transform="translate(0.000000,512.000000) scale(0.100000,-0.100000)"
fill="#000000" stroke="none">
<path d="M1678 4596 c-312 -149 -576 -280 -588 -291 -20 -18 -20 -26 -20 -655
0 -493 3 -640 13 -653 6 -9 235 -124 507 -255 272 -132 533 -258 579 -281 46
-22 92 -41 102 -41 21 0 56 16 694 324 274 132 479 238 493 252 l22 25 0 633
c0 609 -1 634 -19 650 -17 15 -131 72 -576 286 -66 31 -224 107 -352 169 -132
63 -244 111 -260 110 -15 0 -283 -123 -595 -273z m807 30 l197 -95 -123 -59
c-68 -32 -287 -136 -487 -232 l-363 -173 -152 72 c-84 40 -173 83 -199 95 -26
11 -48 24 -48 27 0 8 941 457 961 458 9 1 106 -41 214 -93z m562 -268 c106
-51 189 -96 185 -100 -4 -4 -214 -107 -466 -228 -251 -121 -465 -224 -474
-229 -12 -6 -71 18 -217 89 l-200 97 215 104 c118 57 332 161 475 231 143 69
267 127 275 127 8 1 101 -40 207 -91z m-1735 -262 c51 -24 158 -75 238 -114
80 -38 258 -124 395 -191 l250 -120 3 -535 2 -535 -192 93 c-106 51 -329 157
-495 237 l-302 144 -1 533 c0 292 2 532 4 532 3 0 47 -20 98 -44z m2026 -488
l-3 -531 -493 -238 -492 -237 2 535 3 534 485 234 c267 129 488 234 493 235 4
0 6 -239 5 -532z"/>
<path d="M1487 3669 c-26 -15 -38 -54 -27 -85 8 -20 47 -43 195 -115 102 -49
193 -89 201 -89 47 0 81 51 64 96 -8 20 -47 43 -196 115 -102 49 -193 89 -202
89 -9 0 -25 -5 -35 -11z"/>
<path d="M1075 2453 c-48 -11 -182 -57 -202 -69 -30 -19 -31 -77 -3 -119 11
-16 20 -33 20 -36 0 -3 -39 10 -87 30 -84 34 -93 36 -208 36 -114 0 -123 -2
-187 -32 -44 -21 -88 -53 -131 -96 -84 -83 -100 -108 -91 -141 7 -29 -39 4
707 -510 l518 -356 943 -350 942 -350 372 0 372 0 0 -83 c0 -136 -22 -127 319
-127 266 0 289 1 304 18 22 25 21 75 -1 95 -16 15 -49 17 -250 17 l-232 0 0
715 0 715 350 0 c245 0 357 3 375 12 40 18 49 75 18 111 -15 16 -48 17 -430
17 -400 0 -414 -1 -433 -20 -18 -18 -20 -33 -20 -160 l0 -140 -87 1 -88 0
-254 225 -254 224 -688 0 c-782 0 -720 7 -732 -85 -14 -96 24 -229 93 -332
l22 -33 -64 0 -64 0 -164 253 c-90 138 -183 282 -207 319 -51 78 -139 162
-209 200 -85 46 -197 67 -269 51z m185 -165 c79 -38 138 -105 266 -300 67
-103 127 -196 133 -206 7 -13 -93 40 -257 135 l-269 156 -57 104 c-32 58 -54
109 -49 113 35 34 160 33 233 -2z m-553 -146 c32 -10 123 -57 203 -104 80 -47
326 -189 547 -317 l402 -231 627 0 c695 0 664 -3 664 64 -1 76 -2 76 -457 76
-364 0 -401 2 -438 19 -44 20 -114 90 -141 142 -15 30 -44 121 -44 142 0 4
278 7 618 7 l617 0 200 -176 c110 -97 226 -199 258 -225 l58 -49 110 0 109 0
0 -445 0 -445 -362 0 -363 1 -920 342 -920 342 -559 385 -559 384 44 38 c24
21 62 44 84 52 56 20 153 19 222 -2z"/>
</g>
</svg>
