<?xml version="1.0" encoding="UTF-8"?>
<svg id="Calque_2" data-name="Calque 2" xmlns="http://www.w3.org/2000/svg" viewBox="0 0 351.44 412.12">
  <defs>
    <style>
      .cls-1 {
        fill: #e7d7c1;
      }
    </style>
  </defs>
  <g id="Calque_1-2" data-name="Calque 1">
    <g>
      <path class="cls-1" d="M265.13,179.29c.58-3.42,8.61-4.11,10.65-.7l26.26,192.02c-.6,12.36-8,17.97-19.45,20.5-49.79,10.99-107.15,10.82-157.7,20.96-14.27.67-21.63-4.97-24.71-18.91-3.74-59.07-21.67-123.23-24.16-181.64-.55-12.85,9.81-14.1,12.57-3.06,11.56,58.72,11.56,125.19,24.24,183.03.56,2.54.89,5.13,2.77,7.11,2.4,1.3,4.99.95,7.58.82,51.91-2.51,108.12-17.82,160.54-21.33l4.11-1.91c.66-.68,2.61-6.29,2.53-6.91l-25.25-189.97Z"/>
      <path class="cls-1" d="M219.63,90.11c34.96-.93,80.02,26.51,104.68,49.85,5.43,5.14,27.2,27.28,27.13,33.24-.13,10.51-19.92,33.13-29,38.57-4.59,2.75-21.66,11.35-24.98,4.51-4.86-10,10.46-10.42,17.29-14.19,7.21-3.98,25.59-21.87,22.14-30.53-1.27-3.19-17.78-19.75-21.49-23.25-27.67-26.13-67.6-48.54-106.88-45.32-12.02.99-30.27,10.75-34.55-6.06-1.12-4.39-2.96-17.9-2.25-22,1.23-7.13,17.37-11.82,21.4-25.34C203.54,14.59,159.1-.39,145.28,25.62c-7.57,14.26,2.06,24.78-.21,31.43-1.98,5.8-8.02,4.08-10.91-.61-11.16-18.12-.82-45.17,18.5-52.98,49.1-19.86,75.7,51.19,31.91,74.35l1.98,16.69c10.71-.6,22.51-4.11,33.07-4.39Z"/>
      <path class="cls-1" d="M127.53,105.58c1.75,1.29,6.07,9.76,8.61,12.69,9.89,11.39,24.39,18.23,39.62,17.59,9.16-.38,22.1-8.27,26.06.53,2.15,9.7-22.56,11.26-28.97,11.55-24.32,1.11-40.05-14.05-54.47-31.27-40.63,5.36-71.19,37.87-91.18,71.38-2.96,4.96-12.54,22.1-13.07,26.76-.99,8.68,20.18,21.08,27.91,23.12,6.29,1.66,12.41.9,18.65,2.05,11.15,20.3-23.71,9.71-32.98,5.11-7.09-3.51-25.51-17.89-27.58-25.19-1.33-4.67,8.57-23.41,11.38-28.69,20.99-39.54,61.5-85.44,109.84-86.6,1.92-.05,4.64-.17,6.19.97Z"/>
      <path class="cls-1" d="M168.01,241.5l-6.04,15.05c-.02,2.89,2.31,5.5,5.1,6.01,2.22.41,5.69-.44,5.41,3.5-.38,5.47-9.97,2.22-12.69-.34-9.59-9.05.26-17.39,2.02-26.15.22-1.07-.44-.33-.77-.22-.74.26-1.42.74-2.24.75-2.69.03-4.21-3.28-2.32-5.36.89-.98,10.08-4.68,11.51-4.72s2.35.83,3,1.98c.76,1.34,4.09,9.75,3.92,10.83-.65,4.12-6.8,2.46-6.89-1.32Z"/>
      <path class="cls-1" d="M197.97,230.72c-1.19-3.68,4.69-6.65,6-2.69.51,1.53-.44,9.42-.91,11.27s-1.25,2.93-3.27,3.03c-1.48.07-8.72-.94-10.21-1.37-3.17-.92-3.38-4.82-.91-5.95,1.26-.57,2.17-.12,3.31-.12.67,0,.69-.02.52-.68-4.34-4.02-7.17-14.42-14.54-12.26-3.03.88-2.87,3.56-4.54,4.76-2.33,1.67-5.33-.19-4.95-3.02.52-3.9,5.4-7.37,9.03-8.09,11.38-2.27,14.07,8.67,20.48,15.11Z"/>
      <path class="cls-1" d="M187.87,266.43c4.04,2.01,3.74,7.7-1.33,6.88-.54-.09-8.14-5.86-8.81-6.59-1.54-1.67-1.45-2.52-.38-4.41.7-1.25,6.48-8.68,7.4-8.97,1.45-.47,3.72.79,4.15,2.23.54,1.84-1.16,3.18-1.86,4.61l13.97-1.86c1.4-.19,3.71-3.28,3.95-4.84.56-3.64-3.75-6.78-.67-9.12,3.56-2.71,6.27,2.72,6.85,5.62.8,3.97-.79,9.02-3.82,11.67-.74.65-4.31,2.77-5.06,2.87l-14.39,1.91Z"/>
    </g>
  </g>
</svg>